HIERARCHY
ROOT Hips
{
	OFFSET 0.00000 0.00000 0.00000
	CHANNELS 6 Xposition Yposition Zposition Zrotation Yrotation Xrotation 
	JOINT LHipJoint
	{
		OFFSET 0 0 0
		CHANNELS 3 Zrotation Yrotation Xrotation
		JOINT LeftHip
		{
			OFFSET 1.37959 -1.78713 0.86582
			CHANNELS 3 Zrotation Yrotation Xrotation
			JOINT LeftKnee
			{
				OFFSET 2.54611 -6.99539 0.00000
				CHANNELS 3 Zrotation Yrotation Xrotation
				JOINT LeftAnkle
				{
					OFFSET 2.59951 -7.14211 0.00000
					CHANNELS 3 Zrotation Yrotation Xrotation
					JOINT LeftToe
					{
						OFFSET 0.18493 -0.50810 1.96120
						CHANNELS 3 Zrotation Yrotation Xrotation
						End Site
						{
							OFFSET 0.00000 -0.00000 1.02054
						}
					}
				}
			}
		}
	}
	JOINT RHipJoint
	{
		OFFSET 0 0 0
		CHANNELS 3 Zrotation Yrotation Xrotation
		JOINT RightHip
		{
			OFFSET -1.33564 -1.78713 0.86582
			CHANNELS 3 Zrotation Yrotation Xrotation
			JOINT RightKnee
			{
				OFFSET -2.52705 -6.94302 0.00000
				CHANNELS 3 Zrotation Yrotation Xrotation
				JOINT RightAnkle
				{
					OFFSET -2.55964 -7.03257 0.00000
					CHANNELS 3 Zrotation Yrotation Xrotation
					JOINT RightToe
					{
						OFFSET -0.25804 -0.70896 2.12109
						CHANNELS 3 Zrotation Yrotation Xrotation
						End Site
						{
							OFFSET -0.00000 -0.00000 1.11821
						}
					}
				}
			}
		}
	}
	JOINT lowerback
	{
		OFFSET 0 0 0
		CHANNELS 3 Zrotation Yrotation Xrotation
		JOINT Chest
		{
			OFFSET -0.02031 2.24248 -0.18900
			CHANNELS 3 Zrotation Yrotation Xrotation
			JOINT Chest2
			{
				OFFSET 0.08342 2.24689 -0.03799
				CHANNELS 3 Zrotation Yrotation Xrotation
				JOINT lowerneck
				{
					OFFSET 0 0 0
					CHANNELS 3 Zrotation Yrotation Xrotation
					JOINT Neck
					{
						OFFSET -0.11607 1.55844 0.24628
						CHANNELS 3 Zrotation Yrotation Xrotation
						JOINT Head
						{
							OFFSET 0.06877 1.60174 -0.17013
							CHANNELS 3 Zrotation Yrotation Xrotation
							End Site
							{
								OFFSET 0.03358 1.61266 -0.08543
							}
						}
					}
				}
				JOINT LeftCollar
				{
					OFFSET 0 0 0
					CHANNELS 3 Zrotation Yrotation Xrotation
					JOINT LeftShoulder
					{
						OFFSET 3.47537 0.55866 -0.72348
CHANNELS 3 Zrotation Xrotation Yrotation
						JOINT LeftElbow
						{
OFFSET 0 -5.381540 0.000000
CHANNELS 3 Zrotation Xrotation Yrotation
							JOINT LeftWrist
							{
OFFSET 0 -3.333120 0.000000
CHANNELS 3 Zrotation Xrotation Yrotation
								JOINT lhand
								{
									OFFSET 0 0 0
CHANNELS 3 Zrotation Xrotation Yrotation
									JOINT LFingers
									{
OFFSET 0 -0.710790 0.000000
CHANNELS 3 Zrotation Xrotation Yrotation
										End Site
										{
OFFSET 0 -0.573060 0.000000
										}
									}
								}
								JOINT LThumb
								{
OFFSET 0 0.000000 0.000000
CHANNELS 3 Zrotation Xrotation Yrotation
									End Site
									{
OFFSET 0 -0.581810 0.581810
									}
								}
							}
						}
					}
				}
				JOINT RightCollar
				{
					OFFSET 0 0 0
					CHANNELS 3 Zrotation Yrotation Xrotation
					JOINT RightShoulder
					{
						OFFSET -3.27844 0.90739 -0.35708
CHANNELS 3 Zrotation Xrotation Yrotation
						JOINT RightElbow
						{
OFFSET 0 -5.169540 0.000000
CHANNELS 3 Zrotation Xrotation Yrotation
							JOINT RightWrist
							{
OFFSET 0 -3.382870 0.000000
CHANNELS 3 Zrotation Xrotation Yrotation
								JOINT rhand
								{
									OFFSET 0 0 0
CHANNELS 3 Zrotation Xrotation Yrotation
									JOINT RFingers
									{
OFFSET 0 -0.817970 0.000000
CHANNELS 3 Zrotation Xrotation Yrotation
										End Site
										{
OFFSET 0 -0.659470 0.000000
										}
									}
								}
								JOINT RThumb
								{
OFFSET 0 0.000000 0.000000
CHANNELS 3 Zrotation Xrotation Yrotation
									End Site
									{
OFFSET 0 -0.669530 0.669530
									}
								}
							}
						}
					}
				}
			}
		}
	}
}
MOTION
Frames: 8
Frame Time: 0.008333333333333333
6.700627 17.998320 6.714976 181.945800 8.091873 -175.987696 0.000000 0.000000 0.000000 -22.304185 -0.814971 -8.093621 1.485816 7.700941 21.809446 0.657816 -2.759651 -14.631483 0.160962 -2.584134 -7.123122 0.000000 0.000000 0.000000 12.501623 3.902233 -0.740415 -0.363570 -3.873190 10.720300 -0.106797 -5.941922 -10.968040 -0.014751 0.783366 -2.152946 -2.623365 0.554962 0.488740 -0.976711 0.755925 0.381859 0.467961 0.385416 0.099255 -18.086315 -6.171645 -8.941049 3.199829 -5.960553 7.889515 3.428732 -3.216664 4.490319 0.000000 0.000000 0.000000 4.260620 2.252409 -10.728983 19.996485 -30.637916 5.529617 -1.265105 3.496133 -37.878118 0.000000 0.000000 0.000000 -7.125000 0.000000 0.000000 -43.207685 62.509430 20.347326 0.000000 0.000000 0.000000 -0.365054 0.136977 18.532707 -15.616648 -24.997889 -3.482507 -11.052289 -16.063400 -21.960697 0.000000 0.000000 0.000000 7.125000 0.000000 0.000000 11.178697 7.984600 9.704881
6.697336 17.995199 6.716849 181.937603 7.670959 -176.198536 0.000000 0.000000 0.000000 -22.265377 -0.963938 -7.866862 1.495266 7.724473 21.880348 0.651213 -2.913823 -14.531205 0.106688 -2.081509 -5.731893 0.000000 0.000000 0.000000 12.534590 3.552997 -0.638381 -0.378380 -3.950550 10.937657 -0.136031 -5.734121 -11.314441 -0.003840 0.374015 -1.027647 -2.670272 0.828792 0.343133 -1.210157 1.154235 0.893914 0.259842 0.580344 0.698677 -16.911847 -6.550339 -9.793172 2.684876 -6.389647 9.267328 3.020154 -3.482240 5.050791 0.000000 0.000000 0.000000 4.968304 1.028151 -13.110673 21.267540 -32.139203 6.191670 -2.097782 1.384776 -38.976757 0.000000 0.000000 0.000000 -7.125000 0.000000 0.000000 -45.464092 63.082146 22.251182 0.000000 0.000000 0.000000 0.164373 -0.690037 19.320850 -15.942867 -25.442786 -3.621565 -15.536753 -15.760897 -20.328943 0.000000 0.000000 0.000000 7.125000 0.000000 0.000000 8.276369 9.123740 6.945608
6.675468 17.980730 6.683011 181.537588 7.953721 -176.663708 0.000000 0.000000 0.000000 -22.905147 -0.983998 -7.133534 1.473173 7.669692 21.715237 0.665400 -2.523967 -14.758300 0.053794 -1.490130 -4.098739 0.000000 0.000000 0.000000 11.940758 3.417757 -0.385056 -0.403840 -4.079561 11.300624 -0.176000 -5.139114 -11.462951 -0.003671 0.356489 -0.979508 -2.897519 0.413051 -0.296856 -1.125545 0.609005 0.526544 0.477089 0.306535 0.691661 -17.461119 -5.387748 -6.476873 2.527473 -5.341170 8.974516 3.223359 -2.974022 4.332909 0.000000 0.000000 0.000000 4.338041 2.365909 -12.544559 22.568188 -33.613223 6.897811 -1.685448 0.597228 -38.901676 0.000000 0.000000 0.000000 -7.125000 0.000000 0.000000 -44.972428 63.139778 22.016934 0.000000 0.000000 0.000000 -0.455514 0.121847 20.977045 -15.829549 -25.289050 -3.572878 -14.638170 -16.712706 -21.291945 0.000000 0.000000 0.000000 7.125000 0.000000 0.000000 8.893835 8.254622 7.619699
6.682238 17.980969 6.664494 181.738441 7.542453 -176.640900 0.000000 0.000000 0.000000 -22.650192 -1.188877 -6.870308 1.451788 7.616252 21.554388 0.639108 -2.523466 -14.453892 0.036172 -1.203715 -3.309859 0.000000 0.000000 0.000000 12.216855 3.088648 -0.217121 -0.394604 -4.033514 11.171027 -0.169715 -5.437439 -11.638157 -0.005419 0.400533 -1.100705 -1.441788 0.796393 -0.970247 -2.374878 1.224706 1.630848 -1.592334 0.644817 2.240047 -15.274145 -6.188551 -9.574261 2.481970 -6.150598 10.968069 2.727977 -3.399101 5.467669 0.000000 0.000000 0.000000 6.954781 -0.502932 -14.795147 23.507760 -34.638507 7.425271 -1.725971 -0.042509 -38.687240 0.000000 0.000000 0.000000 -7.125000 0.000000 0.000000 -44.717613 62.975614 21.695636 0.000000 0.000000 0.000000 1.684876 -1.861122 19.643245 -16.290483 -25.912960 -3.772062 -13.782543 -17.002331 -21.633061 0.000000 0.000000 0.000000 7.125000 0.000000 0.000000 9.448743 8.012240 8.154204
6.683700 17.988333 6.646935 181.847561 7.644108 -176.574841 0.000000 0.000000 0.000000 -22.470249 -0.726221 -7.010782 1.446399 7.602573 21.513269 0.667991 -3.083301 -14.700021 0.033200 -1.175625 -3.232316 0.000000 0.000000 0.000000 12.359055 3.115852 -0.081521 -0.377404 -3.945411 10.923180 -0.166489 -5.541508 -11.683603 -0.007811 0.567124 -1.558328 -1.360914 0.415113 -2.047828 -2.185383 0.751953 2.127967 -1.446813 0.405149 3.349963 -15.614112 -5.815017 -9.738872 2.359034 -5.547144 10.529819 2.795241 -3.101658 5.311216 0.000000 0.000000 0.000000 6.346843 -1.068898 -13.973108 24.897412 -36.098401 8.229532 -1.332051 0.048623 -39.091919 0.000000 0.000000 0.000000 -7.125000 0.000000 0.000000 -44.901897 63.370696 22.213957 0.000000 0.000000 0.000000 1.324386 -2.818613 21.024556 -16.389642 -26.046048 -3.815418 -14.017773 -16.482212 -21.579744 0.000000 0.000000 0.000000 7.125000 0.000000 0.000000 9.298212 8.038281 8.015719
6.679980 17.982349 6.645749 181.708531 7.584240 -176.507735 0.000000 0.000000 0.000000 -22.664772 -1.060594 -7.128150 1.503284 7.744070 21.939396 0.702878 -2.896496 -15.120107 0.111313 -2.150843 -5.922787 0.000000 0.000000 0.000000 12.199636 3.046009 0.040133 -0.350860 -3.805627 10.530386 -0.150142 -5.686327 -11.527813 -0.006151 0.493162 -1.355122 -2.636176 0.145177 -1.623842 -1.196044 0.353890 1.908681 0.263958 0.155727 2.865202 -17.571046 -5.690605 -10.808494 3.067063 -4.921985 10.926728 3.352866 -2.827644 5.635047 0.000000 0.000000 0.000000 4.536109 -0.778074 -14.108554 26.406195 -37.606323 9.134690 -1.534154 -1.242060 -38.888439 0.000000 0.000000 0.000000 -7.125000 0.000000 0.000000 -44.810880 63.170857 21.953216 0.000000 0.000000 0.000000 -0.377322 -2.637396 22.342475 -17.289983 -27.238097 -4.219380 -12.283603 -17.903506 -20.511506 0.000000 0.000000 0.000000 7.125000 0.000000 0.000000 10.367609 9.299552 8.701566
6.680538 17.991072 6.647100 181.917110 7.656119 -176.432775 0.000000 0.000000 0.000000 -22.395823 -0.887876 -7.220563 1.510731 7.762371 21.994587 0.700658 -3.110959 -15.063280 0.117043 -2.192586 -6.038801 0.000000 0.000000 0.000000 12.439258 3.196413 0.021620 -0.349717 -3.799401 10.513097 -0.140089 -5.706258 -11.360932 -0.004824 0.413726 -1.136892 -2.492743 0.368980 -1.357768 -1.261056 0.615890 1.373155 0.123534 0.295784 2.158531 -16.750080 -5.561648 -8.496812 2.708017 -5.341899 8.748898 3.133134 -2.946223 4.571580 0.000000 0.000000 0.000000 5.042941 0.079550 -15.604238 27.614001 -38.758297 9.881215 -1.343945 -1.400216 -39.224700 0.000000 0.000000 0.000000 -7.125000 0.000000 0.000000 -45.098762 63.462176 22.426622 0.000000 0.000000 0.000000 -0.260355 -0.967103 23.308098 -18.035877 -28.202928 -4.566199 -14.152189 -18.785720 -20.982998 0.000000 0.000000 0.000000 7.125000 0.000000 0.000000 9.190496 8.623186 7.812645
6.682512 17.982727 6.644476 181.439583 7.783298 -176.624880 0.000000 0.000000 0.000000 -22.939960 -0.684015 -6.981283 1.433600 7.570401 21.416581 0.660279 -2.945112 -14.630324 0.054651 -1.470383 -4.044860 0.000000 0.000000 0.000000 11.904025 3.307351 -0.226560 -0.401394 -4.067370 11.266355 -0.182646 -5.470587 -11.902843 -0.010088 0.643163 -1.767438 -2.020776 0.807916 -1.758013 -2.413842 1.304402 1.929382 -1.291457 0.677039 2.981984 -15.806249 -5.987745 -9.117732 4.256790 -6.219248 7.176992 3.403189 -3.244390 4.271788 0.000000 0.000000 0.000000 7.056448 -0.973999 -17.915551 28.436538 -39.514489 10.400509 -1.939458 -2.319820 -39.769294 0.000000 0.000000 0.000000 -7.125000 0.000000 0.000000 -46.430368 63.683364 23.470286 0.000000 0.000000 0.000000 1.782563 -1.744644 21.756700 -18.452017 -28.732084 -4.764583 -13.776634 -18.386583 -21.445579 0.000000 0.000000 0.000000 7.125000 0.000000 0.000000 9.445762 8.201554 8.116014
